<?xml version="1.0" standalone="no"?>
<!DOCTYPE svg PUBLIC "-//W3C//DTD SVG 20010904//EN"
 "http://www.w3.org/TR/2001/REC-SVG-20010904/DTD/svg10.dtd">
<svg version="1.0" xmlns="http://www.w3.org/2000/svg"
 width="1280.000000pt" height="1280.000000pt" viewBox="0 0 1280.000000 1280.000000"
 preserveAspectRatio="xMidYMid meet">
<metadata>
Created by potrace 1.15, written by Peter Selinger 2001-2017
</metadata>
<g transform="translate(0.000000,1280.000000) scale(0.100000,-0.100000)"
fill="#000000" stroke="none">
<path d="M6125 11905 c-22 -8 -42 -15 -43 -15 -2 0 -54 -49 -116 -108 -115
-112 -131 -122 -258 -157 -79 -21 -92 -47 -86 -170 6 -107 22 -150 58 -150 31
0 45 -38 66 -180 34 -226 97 -399 227 -618 22 -37 38 -69 36 -70 -2 -1 -24
-13 -49 -26 -25 -13 -90 -47 -145 -77 -55 -29 -179 -80 -275 -114 -96 -34
-195 -72 -218 -86 -48 -29 -81 -86 -82 -141 0 -71 -32 -275 -61 -393 -41 -167
-176 -570 -290 -865 -79 -205 -92 -249 -93 -301 -1 -61 0 -63 80 -180 130
-189 147 -233 184 -454 34 -201 49 -234 109 -232 16 0 84 30 150 67 93 51 125
64 145 59 24 -6 26 -10 26 -65 0 -35 -24 -167 -59 -327 -114 -515 -161 -784
-161 -931 0 -124 33 -130 120 -20 22 28 40 47 40 42 0 -5 -33 -153 -73 -329
l-74 -319 54 -768 53 -768 33 -29 c17 -16 207 -185 422 -377 l390 -348 23 -65
c42 -117 41 -169 -6 -306 -51 -148 -76 -304 -70 -433 6 -147 40 -193 140 -192
66 0 127 21 189 66 27 19 51 35 54 35 3 0 5 -22 5 -49 0 -47 3 -52 47 -90 l47
-40 -17 -93 c-9 -51 -19 -111 -21 -133 -2 -22 -10 -67 -19 -100 -8 -33 -15
-74 -15 -91 -1 -41 -73 -216 -156 -381 -94 -186 -126 -326 -92 -406 11 -27 25
-38 70 -55 l56 -21 163 19 c199 25 251 39 304 84 53 46 78 102 94 206 12 82
11 129 -7 542 -6 119 -4 160 9 210 9 35 19 80 22 101 4 28 12 40 31 47 13 5
24 12 24 15 0 3 60 333 134 733 l135 727 -32 315 -32 315 124 550 125 550 -60
492 c-33 271 -57 489 -54 485 4 -4 25 -61 49 -127 23 -66 69 -175 103 -243 49
-101 72 -135 127 -191 149 -151 318 -182 421 -76 24 25 43 35 64 35 42 1 108
32 133 64 12 14 29 50 40 78 11 32 38 74 69 107 28 31 56 66 62 78 21 39 13
106 -28 243 -50 164 -68 279 -48 295 55 41 61 114 24 263 -66 261 -81 358
-216 1407 -153 1184 -215 1535 -283 1608 -12 13 -56 37 -97 52 -92 34 -497
240 -795 403 -239 131 -265 152 -265 223 0 22 19 87 42 146 50 128 58 223 24
280 -17 27 -18 36 -8 58 18 39 15 76 -13 162 -14 43 -34 138 -45 211 -35 236
-60 260 -335 313 -190 38 -296 45 -350 24z m1495 -3542 c20 -98 68 -273 179
-653 91 -313 114 -477 103 -725 -9 -187 -3 -231 31 -261 l25 -22 -46 -33 c-26
-19 -84 -69 -129 -112 -97 -93 -87 -107 -103 143 -6 96 -33 398 -61 670 -27
272 -56 565 -64 650 -23 244 -18 491 12 625 5 23 10 6 19 -72 7 -56 22 -150
34 -210z m-1050 -3753 c58 -642 79 -913 74 -959 l-7 -63 -33 88 c-19 49 -40
103 -48 119 -8 17 -65 138 -125 270 l-110 240 -111 133 -111 132 188 507 c176
472 188 503 195 467 5 -22 44 -442 88 -934z"/>
</g>
</svg>
